<svg id="Capa_1" data-name="Capa 1" xmlns="http://www.w3.org/2000/svg" viewBox="0 0 96.83 96.83" class="bounce">
  <defs>
    <style>
      .cls-1 {
        fill: #ff8b00;
      }

      .cls-2 {
        fill: #ff0;
        stroke: #008b13;
        stroke-miterlimit: 10;
      }

      .cls-3 {
        fill: #fff;
      }

      .cls-4 {
        fill: none;
      }


      @-webkit-keyframes bounce {
  0%, 20%, 50%, 80%, 100% {
    -webkit-transform: translateY(0);
            transform: translateY(0);
  }
  40% {
    -webkit-transform: translateY(-30px);
            transform: translateY(-30px);
  }
  60% {
    -webkit-transform: translateY(-15px);
            transform: translateY(-15px);
  }
}

@keyframes bounce {
  0%, 20%, 50%, 80%, 100% {
    -webkit-transform: translateY(0);
            transform: translateY(0);
  }
  40% {
    -webkit-transform: translateY(-30px);
            transform: translateY(-30px);
  }
  60% {
    -webkit-transform: translateY(-15px);
            transform: translateY(-15px);
  }
}

.bounce {
  -webkit-animation: bounce 2s infinite;
  animation: bounce 2s infinite;
}

svg {
  
  width: 100px;
  height: 100px;
}


.svg_animation{
	margin:100px;
}
    </style>
  </defs>
  <g>
    <path class="cls-1" d="M37.22,56.64a20,20,0,1,1,33.08,0L53.76,81.1Z" transform="translate(-5.35 -5.35)"/>
    <path d="M53.76,26A19.46,19.46,0,0,1,69.89,56.36L53.76,80.21,37.64,56.36A19.46,19.46,0,0,1,53.76,26m0-1a20.42,20.42,0,0,0-14.47,6h0a20.46,20.46,0,0,0-2.48,25.94L53.76,82l17-25.07A20.47,20.47,0,0,0,68.23,31h0a20.41,20.41,0,0,0-14.47-6Z" transform="translate(-5.35 -5.35)"/>
  </g>
  <g>
    <rect x="37.21" y="34.04" width="3.49" height="12.69"/>
    <polygon points="50.26 43.52 50.26 46.73 46.77 46.73 46.77 43.33 46.78 43.33 48.62 45.16 50.26 43.52"/>
    <polygon class="cls-2" points="46.78 41.54 46.77 41.55 46.77 41.53 46.78 41.54"/>
    <polygon points="50.26 34.04 50.26 39.85 48.62 41.49 46.77 39.65 46.77 34.04 50.26 34.04"/>
    <polygon class="cls-3" points="62.77 46.73 59.06 46.73 53.18 40.22 50.45 43.33 50.35 43.42 50.26 43.52 48.62 45.16 46.78 43.33 46.77 43.32 43.67 40.22 40.7 43.2 40.7 39.52 43.67 36.55 48.62 41.49 53.18 36.55 53.18 36.55 53.18 36.55 53.18 36.55 62.77 46.73"/>
    <rect class="cls-3" x="57.44" y="49.39" width="2.23" height="2.23" transform="translate(47.51 -31.96) rotate(45)"/>
  </g>
  <rect class="cls-4" width="96.83" height="96.83"/>
</svg>
