<svg id="Capa_1" data-name="Capa 1" xmlns="http://www.w3.org/2000/svg" viewBox="0 0 96.83 96.83">
  <defs>
    <style>
      .cls-1, .cls-5 {
        fill: #fff;
      }

      .cls-1 {
        opacity: 0.1;
      }

      .cls-2 {
        fill: none;
      }

      .cls-3 {
        fill: #ff8b00;
      }

      .cls-4 {
        fill: #ff0;
        stroke: #008b13;
        stroke-miterlimit: 10;
      }
    </style>
  </defs>
  <g>
    <rect class="cls-1" x="17.23" y="21.26" width="63.91" height="31.78"/>
    <rect class="cls-2" width="96.83" height="96.83"/>
  </g>
  <g>
    <path class="cls-3" d="M39.72,75.13a17,17,0,1,1,28.08,0l-14,20.77Z" transform="translate(-5.35 -5.35)"/>
    <path d="M53.76,49.19A16.45,16.45,0,0,1,67.39,74.85L53.76,95,40.14,74.85A16.45,16.45,0,0,1,53.76,49.19m0-1A17.4,17.4,0,0,0,41.42,53.3h0a17.44,17.44,0,0,0-2.11,22.11L53.76,96.79,68.22,75.41A17.45,17.45,0,0,0,66.1,53.3h0a17.38,17.38,0,0,0-12.34-5.11Z" transform="translate(-5.35 -5.35)"/>
  </g>
  <g>
    <rect x="38.86" y="55.12" width="2.97" height="10.82"/>
    <polygon points="49.98 63.2 49.98 65.94 47.01 65.94 47.01 63.04 47.02 63.03 48.59 64.6 49.98 63.2"/>
    <polygon class="cls-4" points="47.02 61.51 47.01 61.52 47.01 61.51 47.02 61.51"/>
    <polygon points="49.98 55.12 49.98 60.07 48.59 61.47 47.01 59.9 47.01 55.12 49.98 55.12"/>
    <polygon class="cls-5" points="60.65 65.94 57.49 65.94 52.48 60.38 50.15 63.03 50.07 63.11 49.98 63.2 48.59 64.6 47.02 63.03 47.01 63.03 44.37 60.39 41.83 62.92 41.83 59.8 44.37 57.26 48.59 61.47 52.48 57.26 52.48 57.26 52.48 57.26 52.48 57.26 60.65 65.94"/>
    <rect class="cls-5" x="56.9" y="69" width="1.9" height="1.9" transform="translate(61.05 -25.77) rotate(45)"/>
  </g>
</svg>
