<svg id="Capa_1" data-name="Capa 1" xmlns="http://www.w3.org/2000/svg" viewBox="0 0 60 60" class="bounce">
  <defs>
    <style>
      .cls-1 {
        fill: #ff8b00;
      }

      .cls-2 {
        fill: #ff0;
        stroke: #008b13;
        stroke-miterlimit: 10;
      }

      .cls-3 {
        fill: #fff;
      }

      .cls-4 {
        fill: none;
      }
    </style>

    <style>
  @-webkit-keyframes bounce {
  0%, 20%, 50%, 80%, 100% {
    -webkit-transform: translateY(0);
            transform: translateY(0);
  }
  40% {
    -webkit-transform: translateY(-30px);
            transform: translateY(-30px);
  }
  60% {
    -webkit-transform: translateY(-15px);
            transform: translateY(-15px);
  }
}

@keyframes bounce {
  0%, 20%, 50%, 80%, 100% {
    -webkit-transform: translateY(0);
            transform: translateY(0);
  }
  40% {
    -webkit-transform: translateY(-30px);
            transform: translateY(-30px);
  }
  60% {
    -webkit-transform: translateY(-15px);
            transform: translateY(-15px);
  }
}

.bounce {
  -webkit-animation: bounce 2s infinite;
  animation: bounce 2s infinite;
}

svg {
  
  
  width: 100px;
  height: 100px;
}

body {
  display: flex;
  justify-content: center;
  align-items: center;
  height: 100vh;
  margin: 0;
}

</style>
  </defs>
  <g>
    <path class="cls-1" d="M13.46,32.88a20,20,0,1,1,33.08,0L30,57.34Z"/>
    <path d="M30,2.23A19.46,19.46,0,0,1,46.13,32.6L30,56.44,13.87,32.6A19.46,19.46,0,0,1,30,2.23m0-1a20.36,20.36,0,0,0-14.47,6h0a20.46,20.46,0,0,0-2.48,25.94L30,58.23,47,33.16A20.46,20.46,0,0,0,44.47,7.22h0A20.36,20.36,0,0,0,30,1.23Z"/>
  </g>
  <g>
    <rect x="18.8" y="15.63" width="3.49" height="12.69"/>
    <polygon points="31.84 25.11 31.84 28.32 28.36 28.32 28.36 24.92 28.37 24.91 30.2 26.75 31.84 25.11"/>
    <polygon class="cls-2" points="28.37 23.13 28.36 23.13 28.36 23.12 28.37 23.13"/>
    <polygon points="31.84 15.63 31.84 21.44 30.2 23.08 28.36 21.23 28.36 15.63 31.84 15.63"/>
    <polygon class="cls-3" points="44.36 28.32 40.65 28.32 34.77 21.8 32.04 24.91 31.94 25 31.84 25.11 30.2 26.75 28.37 24.91 28.36 24.91 25.26 21.81 22.28 24.78 22.28 21.11 25.26 18.14 30.2 23.08 34.77 18.13 34.77 18.13 34.77 18.13 34.77 18.13 44.36 28.32"/>
    <rect class="cls-3" x="33.68" y="25.63" width="2.23" height="2.23" transform="translate(29.1 -16.77) rotate(45)"/>
  </g>
  <rect class="cls-4" width="60" height="60"/>
</svg>


